<svg width="64" height="49" viewBox="0 0 64 49" fill="none" xmlns="http://www.w3.org/2000/svg">
<path d="M9.78977 4.95421e-06H9.78433C9.48619 -0.000619723 9.19088 0.0578359 8.91546 0.171997C8.64004 0.286158 8.38996 0.45376 8.17969 0.665122C7.96539 0.877991 7.79551 1.13131 7.6799 1.41037C7.56429 1.68942 7.50527 1.98867 7.50625 2.29072V36.6325C7.50853 37.2396 7.75095 37.8212 8.18057 38.2501C8.61019 38.6791 9.19209 38.9207 9.79921 38.9221C15.1296 38.9347 24.0616 40.0459 30.2223 46.4925V10.5539C30.2277 10.1456 30.1187 9.74392 29.9075 9.3944C24.8515 1.2504 15.1328 0.0129623 9.78977 0.000322337V4.95421e-06Z" fill="#F23C4A"/>
<path d="M56.4944 36.6325V2.28991C56.4953 1.98796 56.4361 1.68884 56.3203 1.40996C56.2045 1.13108 56.0345 0.878001 55.82 0.665435C55.6098 0.453937 55.3598 0.286242 55.0843 0.172071C54.8089 0.0579 54.5135 -0.000479307 54.2154 0.000313136H54.2102C48.8683 0.0129531 39.1502 1.25008 34.0933 9.3944C33.8823 9.74398 33.7732 10.1456 33.7786 10.5539V46.4925C39.9386 40.0445 48.8704 38.9338 54.2019 38.921C54.8087 38.9196 55.3904 38.6783 55.8199 38.2496C56.2494 37.8209 56.4919 37.2398 56.4944 36.633V36.6325Z" fill="#F23C4A"/>
<path d="M61.7104 7.91998H60.0501V36.6325C60.0461 38.1806 59.4297 39.6642 58.3355 40.7593C57.2413 41.8545 55.7582 42.4721 54.2101 42.4774C49.6878 42.488 42.233 43.3717 36.9531 48.3697C46.0851 46.1337 55.7115 47.587 61.1976 48.8371C61.5331 48.9143 61.8816 48.9148 62.2173 48.8386C62.553 48.7624 62.8672 48.6115 63.1365 48.3971C63.4058 48.1827 63.6233 47.9104 63.7728 47.6003C63.9223 47.2902 64 46.9505 64 46.6062V10.2097C63.9995 9.60264 63.7582 9.02054 63.3289 8.59126C62.8996 8.16198 62.3175 7.92061 61.7104 7.92014V7.91998Z" fill="white"/>
<path d="M3.94992 36.6325V7.91998H2.2896C1.68251 7.92058 1.10047 8.16201 0.671206 8.5913C0.241947 9.02059 0.000550682 9.60265 0 10.2097V46.6051C8.26502e-05 46.9493 0.0777428 47.2891 0.227207 47.5991C0.376671 47.9092 0.594097 48.1816 0.86332 48.396C1.13254 48.6105 1.44664 48.7615 1.78227 48.8379C2.11789 48.9142 2.46641 48.914 2.80192 48.8371C8.28992 47.5859 17.9158 46.1331 27.0477 48.3686C21.7677 43.3717 14.3117 42.488 9.79072 42.4774C8.24263 42.4721 6.75955 41.8544 5.66534 40.7593C4.57114 39.6642 3.95472 38.1806 3.95072 36.6325H3.94992Z" fill="white"/>
</svg>
