<svg width="128" height="98" viewBox="0 0 128 98" fill="none" xmlns="http://www.w3.org/2000/svg">
<path d="M19.5795 9.90841e-06H19.5686C18.9724 -0.00123945 18.3817 0.115672 17.8309 0.343994C17.2801 0.572317 16.7799 0.90752 16.3594 1.33024C15.9308 1.75598 15.591 2.26261 15.3598 2.82073C15.1286 3.37885 15.0105 3.97733 15.0125 4.58145V73.265C15.017 74.4792 15.5019 75.6423 16.3611 76.5003C17.2203 77.3583 18.3842 77.8414 19.5984 77.8442C30.2592 77.8694 48.1232 80.0919 60.4445 92.985V21.1078C60.4554 20.2912 60.2374 19.4878 59.815 18.7888C49.703 2.50081 30.2656 0.0259247 19.5795 0.000644674V9.90841e-06Z" fill="#F23C4A"/>
<path d="M112.989 73.265V4.57984C112.991 3.97593 112.872 3.3777 112.641 2.81994C112.409 2.26218 112.069 1.75602 111.64 1.33088C111.22 0.907888 110.72 0.572498 110.169 0.344156C109.618 0.115814 109.027 -0.000944308 108.431 0.000640578H108.42C97.7366 0.0259206 78.3005 2.50016 68.1866 18.7888C67.7645 19.488 67.5465 20.2912 67.5571 21.1078V92.985C79.8771 80.089 97.7408 77.8675 108.404 77.8419C109.617 77.8392 110.781 77.3565 111.64 76.4992C112.499 75.6419 112.984 74.4796 112.989 73.2659V73.265Z" fill="#F23C4A"/>
<path d="M123.421 15.84H120.1V73.265C120.092 76.3612 118.859 79.3284 116.671 81.5187C114.483 83.709 111.516 84.9443 108.42 84.9549C99.3757 84.976 84.4659 86.7433 73.9062 96.7395C92.1702 92.2675 111.423 95.1741 122.395 97.6742C123.066 97.8285 123.763 97.8296 124.435 97.6772C125.106 97.5249 125.734 97.2231 126.273 96.7943C126.812 96.3655 127.247 95.8208 127.546 95.2006C127.845 94.5805 128 93.9009 128 93.2125V20.4195C127.999 19.2053 127.516 18.0411 126.658 17.1825C125.799 16.324 124.635 15.8412 123.421 15.8403V15.84Z" fill="#2B2D42"/>
<path d="M7.89984 73.265V15.84H4.5792C3.36503 15.8412 2.20093 16.324 1.34241 17.1826C0.483893 18.0412 0.00110136 19.2053 0 20.4195V93.2102C0.000165301 93.8986 0.155486 94.5782 0.454414 95.1983C0.753343 95.8184 1.18819 96.3632 1.72664 96.7921C2.26509 97.221 2.89328 97.523 3.56453 97.6758C4.23578 97.8285 4.93282 97.828 5.60384 97.6742C16.5798 95.1718 35.8317 92.2662 54.0954 96.7373C43.5354 86.7434 28.6234 84.976 19.5814 84.9549C16.4853 84.9442 13.5191 83.7089 11.3307 81.5186C9.14228 79.3284 7.90945 76.3611 7.90144 73.265H7.89984Z" fill="#2B2D42"/>
</svg>
