<svg width="256" height="244" viewBox="0 0 256 244" fill="none" xmlns="http://www.w3.org/2000/svg">
<path d="M154.945 13.6583L21.5737 42.2427L61.1128 226.31L194.485 197.726L154.945 13.6583Z" fill="#E0E0E0"/>
<g opacity="0.5">
<path opacity="0.5" d="M153.362 17.2533L24.498 44.8716L62.7007 222.718L191.565 195.099L153.362 17.2533Z" fill="url(#paint0_linear)"/>
</g>
<path d="M152.002 18.9139L26.4185 45.8291L63.777 219.746L189.36 192.831L152.002 18.9139Z" fill="#FAFAFA"/>
<path d="M118.905 18.1204L56.605 31.4727L59.843 46.5469L122.143 33.1947L118.905 18.1204Z" fill="url(#paint1_linear)"/>
<path d="M84.5901 10.0735C79.7802 11.1055 76.7369 15.9287 77.795 20.8454C78.8531 25.7621 83.6069 28.9173 88.4075 27.8853C93.208 26.8533 96.2607 22.0301 95.2025 17.1134C94.1444 12.1967 89.4 9.04151 84.5901 10.0735ZM87.6084 24.1346C86.5918 24.3768 85.5261 24.3111 84.547 23.946C83.568 23.5809 82.7199 22.9329 82.1109 22.0846C81.5019 21.2363 81.1596 20.226 81.1275 19.1826C81.0955 18.1392 81.3752 17.1099 81.931 16.2259C82.4868 15.3419 83.2935 14.6432 84.2483 14.2188C85.2032 13.7945 86.2629 13.6637 87.2924 13.8432C88.3219 14.0227 89.2746 14.5043 90.0291 15.2266C90.7835 15.9489 91.3056 16.8793 91.5288 17.8991C91.6829 18.5657 91.7037 19.2562 91.59 19.9309C91.4762 20.6056 91.2301 21.2512 90.8658 21.8306C90.5015 22.41 90.0262 22.9118 89.4672 23.3072C88.9082 23.7026 88.2765 23.9838 87.6084 24.1346Z" fill="url(#paint2_linear)"/>
<path d="M118.111 17.6145L57.1226 30.6855L60.2179 45.0953L121.206 32.0243L118.111 17.6145Z" fill="white"/>
<path d="M84.5905 10.0738C82.9047 10.4352 81.3641 11.2878 80.1634 12.5238C78.9627 13.7598 78.1559 15.3237 77.845 17.0177C77.5342 18.7117 77.7331 20.4597 78.4168 22.0407C79.1005 23.6218 80.2382 24.9648 81.686 25.9C83.1338 26.8352 84.8268 27.3206 86.5508 27.2948C88.2747 27.2689 89.9523 26.733 91.3714 25.7549C92.7905 24.7767 93.8873 23.4002 94.5232 21.7993C95.1591 20.1985 95.3055 18.4453 94.9439 16.7614C94.7037 15.6432 94.2454 14.5832 93.5951 13.642C92.9449 12.7007 92.1153 11.8966 91.1539 11.2756C90.1925 10.6546 89.118 10.2288 87.9919 10.0226C86.8657 9.8164 85.7099 9.83379 84.5905 10.0738ZM87.4746 23.5114C86.5015 23.7199 85.4884 23.6356 84.5634 23.269C83.6383 22.9024 82.8429 22.27 82.2777 21.4518C81.7125 20.6336 81.4029 19.6664 81.388 18.6725C81.3731 17.6785 81.6537 16.7025 82.1942 15.8678C82.7347 15.0331 83.5108 14.3773 84.4245 13.9833C85.3381 13.5892 86.3483 13.4747 87.3271 13.6541C88.306 13.8335 89.2095 14.2988 89.9236 14.9912C90.6377 15.6836 91.1302 16.572 91.3387 17.544C91.6184 18.8471 91.3684 20.2079 90.6438 21.3269C89.9191 22.446 88.7792 23.2318 87.4746 23.5114Z" fill="white"/>
<path d="M216.902 36.4502H80.4951V224.707H216.902V36.4502Z" fill="#E0E0E0"/>
<g opacity="0.5">
<path opacity="0.5" d="M214.599 39.6328H82.8018V221.527H214.599V39.6328Z" fill="url(#paint3_linear)"/>
</g>
<path d="M212.92 40.9736H84.4785V218.849H212.92V40.9736Z" fill="white"/>
<path d="M180.727 33.2603H117.008V48.6776H180.727V33.2603Z" fill="url(#paint4_linear)"/>
<path d="M148.867 18.2112C143.948 18.2112 139.959 22.2892 139.959 27.3213C139.959 32.3534 143.948 36.4314 148.867 36.4314C153.786 36.4314 157.775 32.3534 157.775 27.3213C157.775 22.2892 153.786 18.2112 148.867 18.2112ZM148.867 32.5779C147.821 32.6027 146.792 32.3156 145.91 31.7532C145.029 31.1909 144.335 30.3789 143.917 29.4208C143.5 28.4628 143.377 27.4021 143.566 26.3744C143.755 25.3466 144.246 24.3984 144.977 23.6507C145.708 22.9031 146.645 22.3899 147.669 22.1767C148.693 21.9636 149.757 22.0602 150.726 22.4541C151.695 22.848 152.525 23.5214 153.109 24.3884C153.692 25.2553 154.005 26.2764 154.005 27.3213C154.015 28.6946 153.48 30.016 152.517 30.9964C151.554 31.9768 150.242 32.5365 148.867 32.5529V32.5779Z" fill="url(#paint5_linear)"/>
<path d="M180.055 32.5991H117.679V47.3368H180.055V32.5991Z" fill="white"/>
<path d="M148.867 18.2112C147.143 18.2112 145.458 18.7219 144.024 19.6787C142.59 20.6356 141.473 21.9956 140.813 23.5867C140.153 25.1779 139.981 26.9288 140.317 28.6179C140.653 30.3071 141.484 31.8587 142.703 33.0765C143.922 34.2944 145.475 35.1237 147.166 35.4597C148.858 35.7957 150.61 35.6233 152.203 34.9642C153.796 34.3051 155.158 33.189 156.116 31.757C157.074 30.325 157.585 28.6414 157.585 26.9191C157.585 24.6096 156.667 22.3947 155.032 20.7617C153.397 19.1286 151.179 18.2112 148.867 18.2112ZM148.867 31.945C147.873 31.9437 146.901 31.6482 146.075 31.0958C145.249 30.5433 144.605 29.7587 144.224 28.841C143.844 27.9232 143.745 26.9135 143.938 25.9394C144.132 24.9652 144.611 24.0703 145.313 23.3675C146.016 22.6648 146.911 22.1857 147.887 21.9909C148.862 21.7961 149.873 21.8942 150.792 22.2729C151.711 22.6515 152.497 23.2938 153.051 24.1185C153.606 24.9432 153.903 25.9134 153.905 26.9066C153.905 27.5669 153.774 28.2206 153.521 28.8304C153.267 29.4402 152.896 29.9942 152.428 30.4606C151.96 30.9271 151.405 31.2969 150.794 31.5489C150.183 31.8009 149.528 31.9302 148.867 31.9294V31.945Z" fill="white"/>
<g opacity="0.5">
<path opacity="0.5" d="M5.93923 229.795H4.76562V236.445H5.93923V229.795Z" fill="#47E6B1"/>
<path opacity="0.5" d="M8.68359 233.708V232.536H2.02587V233.708H8.68359Z" fill="#47E6B1"/>
</g>
<g opacity="0.5">
<path opacity="0.5" d="M142.097 0H140.923V6.6502H142.097V0Z" fill="#47E6B1"/>
<path opacity="0.5" d="M144.841 3.90957V2.7373L138.184 2.7373V3.90957L144.841 3.90957Z" fill="#47E6B1"/>
</g>
<path opacity="0.5" d="M240.678 240.867C240.354 240.726 240.093 240.471 239.946 240.151C239.798 239.831 239.773 239.467 239.876 239.13C239.892 239.078 239.903 239.025 239.907 238.971C239.916 238.817 239.875 238.663 239.791 238.534C239.706 238.404 239.582 238.305 239.436 238.252C239.291 238.198 239.132 238.193 238.984 238.237C238.835 238.28 238.705 238.371 238.611 238.494C238.579 238.537 238.552 238.585 238.53 238.634C238.389 238.958 238.134 239.218 237.814 239.366C237.493 239.513 237.129 239.538 236.792 239.436C236.74 239.419 236.687 239.409 236.633 239.404C236.478 239.395 236.324 239.436 236.195 239.52C236.065 239.605 235.966 239.729 235.913 239.874C235.859 240.019 235.854 240.178 235.897 240.326C235.941 240.475 236.031 240.605 236.155 240.698C236.198 240.731 236.246 240.758 236.295 240.779C236.619 240.92 236.88 241.175 237.028 241.495C237.176 241.815 237.2 242.179 237.098 242.516C237.081 242.568 237.071 242.621 237.066 242.675C237.057 242.829 237.098 242.983 237.183 243.112C237.267 243.242 237.391 243.34 237.537 243.394C237.682 243.447 237.841 243.453 237.989 243.409C238.138 243.366 238.268 243.275 238.362 243.152C238.394 243.109 238.421 243.061 238.443 243.012C238.584 242.688 238.839 242.428 239.159 242.28C239.48 242.133 239.844 242.108 240.181 242.21C240.233 242.227 240.287 242.237 240.341 242.242C240.495 242.251 240.649 242.21 240.778 242.126C240.908 242.041 241.007 241.917 241.061 241.772C241.114 241.627 241.119 241.468 241.076 241.32C241.032 241.171 240.942 241.041 240.818 240.948C240.775 240.915 240.728 240.888 240.678 240.867Z" fill="#4D8AF0"/>
<path opacity="0.5" d="M42.6587 176.933C42.335 176.793 42.0744 176.538 41.9265 176.218C41.7786 175.897 41.7537 175.534 41.8565 175.197C41.8731 175.145 41.8836 175.092 41.8877 175.038C41.8971 174.883 41.8564 174.73 41.7717 174.6C41.6869 174.471 41.5628 174.372 41.4174 174.319C41.2721 174.265 41.1134 174.26 40.9649 174.303C40.8163 174.347 40.6857 174.437 40.5924 174.561C40.56 174.604 40.5327 174.651 40.5113 174.701C40.3703 175.024 40.1153 175.285 39.7948 175.432C39.4742 175.58 39.1104 175.605 38.7727 175.502C38.721 175.486 38.6676 175.475 38.6135 175.471C38.4589 175.462 38.3054 175.502 38.1758 175.587C38.0461 175.672 37.9472 175.796 37.8936 175.941C37.8401 176.086 37.8347 176.244 37.8783 176.393C37.922 176.541 38.0123 176.672 38.1359 176.765C38.1794 176.797 38.2266 176.825 38.2764 176.846C38.6001 176.987 38.8607 177.241 39.0086 177.562C39.1565 177.882 39.1814 178.245 39.0786 178.583C39.062 178.634 39.0515 178.688 39.0474 178.742C39.038 178.896 39.0788 179.049 39.1635 179.179C39.2482 179.308 39.3724 179.407 39.5177 179.461C39.663 179.514 39.8217 179.519 39.9703 179.476C40.1189 179.432 40.2494 179.342 40.3427 179.219C40.3752 179.175 40.4024 179.128 40.4239 179.078C40.5648 178.755 40.8198 178.495 41.1404 178.347C41.4609 178.199 41.8247 178.174 42.1624 178.277C42.2141 178.294 42.2675 178.304 42.3216 178.308C42.4762 178.318 42.6297 178.277 42.7593 178.192C42.889 178.108 42.9879 177.984 43.0415 177.838C43.0951 177.693 43.1004 177.535 43.0568 177.386C43.0131 177.238 42.9228 177.107 42.7992 177.014C42.7557 176.982 42.7085 176.955 42.6587 176.933Z" fill="#FDD835"/>
<path opacity="0.5" d="M207.591 21.257C207.268 21.1163 207.007 20.8615 206.859 20.5413C206.711 20.2211 206.686 19.8578 206.789 19.5204C206.806 19.4688 206.816 19.4155 206.82 19.3614C206.83 19.207 206.789 19.0537 206.704 18.9242C206.62 18.7947 206.495 18.6959 206.35 18.6424C206.205 18.5889 206.046 18.5835 205.897 18.6271C205.749 18.6707 205.618 18.7609 205.525 18.8844C205.493 18.9278 205.465 18.9749 205.444 19.0247C205.303 19.348 205.048 19.6084 204.727 19.7561C204.407 19.9038 204.043 19.9287 203.705 19.826C203.654 19.8094 203.6 19.7989 203.546 19.7948C203.392 19.7855 203.238 19.8261 203.108 19.9108C202.979 19.9954 202.88 20.1194 202.826 20.2646C202.773 20.4097 202.767 20.5682 202.811 20.7166C202.855 20.8651 202.945 20.9955 203.069 21.0887C203.112 21.1211 203.159 21.1483 203.209 21.1697C203.533 21.3105 203.793 21.5652 203.941 21.8854C204.089 22.2056 204.114 22.569 204.011 22.9063C203.995 22.9579 203.984 23.0113 203.98 23.0653C203.971 23.2197 204.011 23.373 204.096 23.5025C204.181 23.632 204.305 23.7309 204.45 23.7844C204.596 23.8379 204.754 23.8432 204.903 23.7997C205.051 23.7561 205.182 23.6658 205.275 23.5423C205.308 23.4989 205.335 23.4518 205.356 23.402C205.497 23.0787 205.752 22.8184 206.073 22.6706C206.394 22.5229 206.757 22.498 207.095 22.6008C207.147 22.6174 207.2 22.6278 207.254 22.632C207.409 22.6413 207.562 22.6006 207.692 22.516C207.822 22.4314 207.921 22.3073 207.974 22.1622C208.028 22.017 208.033 21.8585 207.989 21.7101C207.946 21.5617 207.855 21.4312 207.732 21.3381C207.688 21.3057 207.641 21.2785 207.591 21.257Z" fill="#FDD835"/>
<path opacity="0.5" d="M253.65 100.392C254.948 100.392 256.001 99.3408 256.001 98.0442C256.001 96.7476 254.948 95.6965 253.65 95.6965C252.352 95.6965 251.3 96.7476 251.3 98.0442C251.3 99.3408 252.352 100.392 253.65 100.392Z" fill="#F55F44"/>
<path opacity="0.5" d="M72.0173 235.136C73.3154 235.136 74.3677 234.085 74.3677 232.788C74.3677 231.492 73.3154 230.44 72.0173 230.44C70.7193 230.44 69.667 231.492 69.667 232.788C69.667 234.085 70.7193 235.136 72.0173 235.136Z" fill="#F55F44"/>
<path opacity="0.5" d="M229.512 151.137C230.811 151.137 231.863 150.086 231.863 148.789C231.863 147.493 230.811 146.442 229.512 146.442C228.214 146.442 227.162 147.493 227.162 148.789C227.162 150.086 228.214 151.137 229.512 151.137Z" fill="#F55F44"/>
<path opacity="0.5" d="M27.1985 32.3875C28.4965 32.3875 29.5488 31.3364 29.5488 30.0398C29.5488 28.7432 28.4965 27.6921 27.1985 27.6921C25.9004 27.6921 24.8481 28.7432 24.8481 30.0398C24.8481 31.3364 25.9004 32.3875 27.1985 32.3875Z" fill="#4D8AF0"/>
<path opacity="0.5" d="M2.35034 96.4295C3.6484 96.4295 4.70068 95.3784 4.70068 94.0818C4.70068 92.7852 3.6484 91.7341 2.35034 91.7341C1.05228 91.7341 0 92.7852 0 94.0818C0 95.3784 1.05228 96.4295 2.35034 96.4295Z" fill="#47E6B1"/>
<defs>
<linearGradient id="paint0_linear" x1="127.131" y1="208.909" x2="89.0113" y2="31.045" gradientUnits="userSpaceOnUse">
<stop stop-color="#808080" stop-opacity="0.25"/>
<stop offset="0.54" stop-color="#808080" stop-opacity="0.12"/>
<stop offset="1" stop-color="#808080" stop-opacity="0.1"/>
</linearGradient>
<linearGradient id="paint1_linear" x1="34273.9" y1="-4458.07" x2="34114.1" y2="-5203.56" gradientUnits="userSpaceOnUse">
<stop stop-color="#808080" stop-opacity="0.25"/>
<stop offset="0.54" stop-color="#808080" stop-opacity="0.12"/>
<stop offset="1" stop-color="#808080" stop-opacity="0.1"/>
</linearGradient>
<linearGradient id="paint2_linear" x1="10008.1" y1="508.498" x2="9785.18" y2="-531.535" gradientUnits="userSpaceOnUse">
<stop stop-color="#808080" stop-opacity="0.25"/>
<stop offset="0.54" stop-color="#808080" stop-opacity="0.12"/>
<stop offset="1" stop-color="#808080" stop-opacity="0.1"/>
</linearGradient>
<linearGradient id="paint3_linear" x1="62870.9" y1="129281" x2="62870.9" y2="23162" gradientUnits="userSpaceOnUse">
<stop stop-color="#808080" stop-opacity="0.25"/>
<stop offset="0.54" stop-color="#808080" stop-opacity="0.12"/>
<stop offset="1" stop-color="#808080" stop-opacity="0.1"/>
</linearGradient>
<linearGradient id="paint4_linear" x1="30506.8" y1="2440.37" x2="30506.8" y2="1677.99" gradientUnits="userSpaceOnUse">
<stop stop-color="#808080" stop-opacity="0.25"/>
<stop offset="0.54" stop-color="#808080" stop-opacity="0.12"/>
<stop offset="1" stop-color="#808080" stop-opacity="0.1"/>
</linearGradient>
<linearGradient id="paint5_linear" x1="12021" y1="3232.08" x2="12021" y2="2167.29" gradientUnits="userSpaceOnUse">
<stop stop-color="#808080" stop-opacity="0.25"/>
<stop offset="0.54" stop-color="#808080" stop-opacity="0.12"/>
<stop offset="1" stop-color="#808080" stop-opacity="0.1"/>
</linearGradient>
</defs>
</svg>
