<svg width="256" height="222" viewBox="0 0 256 222" fill="none" xmlns="http://www.w3.org/2000/svg">
<g clip-path="url(#clip0)">
<g opacity="0.8">
<path opacity="0.8" d="M131.657 74.9007C156.308 74.9007 176.292 59.4195 176.292 40.3224C176.292 21.2254 156.308 5.74414 131.657 5.74414C107.005 5.74414 87.0215 21.2254 87.0215 40.3224C87.0215 59.4195 107.005 74.9007 131.657 74.9007Z" fill="url(#paint0_linear)"/>
</g>
<path d="M131.657 74.1333C155.762 74.1333 175.302 58.9959 175.302 40.323C175.302 21.6501 155.762 6.5127 131.657 6.5127C107.553 6.5127 88.0122 21.6501 88.0122 40.323C88.0122 58.9959 107.553 74.1333 131.657 74.1333Z" fill="white"/>
<path opacity="0.1" d="M95.0676 44.081C95.0676 25.4082 114.606 10.2707 138.709 10.2707C146.193 10.2295 153.602 11.7588 160.457 14.7598C152.786 9.57886 142.751 6.43066 131.767 6.43066C107.663 6.43066 88.1221 21.5682 88.1221 40.241C88.1221 52.7789 96.9327 63.7229 110.022 69.5621C100.858 63.3632 95.0676 54.2478 95.0676 44.081Z" fill="white"/>
<path opacity="0.2" d="M131.657 53.9121L180.041 137.716L228.425 221.516H131.657H34.8892L83.2732 137.716L131.657 53.9121Z" fill="white"/>
<g opacity="0.3">
<path opacity="0.3" d="M143.138 172.562L146.895 161.411C148.188 157.528 148.198 153.332 146.925 149.442C145.652 145.552 143.163 142.174 139.825 139.806L139.855 139.788C138.377 138.748 136.756 137.926 135.043 137.35L134.991 137.332L134.933 137.313C133.27 136.751 131.537 136.425 129.783 136.344C129.163 136.312 128.541 136.312 127.921 136.344C126.845 136.401 125.775 136.548 124.724 136.786C124.419 136.853 124.114 136.929 123.837 137.012C123.56 137.094 123.249 137.182 122.959 137.277C122.38 137.469 121.81 137.685 121.253 137.932C120.972 138.054 120.695 138.182 120.424 138.319C119.604 138.724 118.814 139.189 118.062 139.709C117.809 139.883 117.562 140.062 117.318 140.245C114.306 142.536 112.051 145.679 110.845 149.266L104.939 166.836C104.009 169.591 103.73 172.524 104.122 175.406C104.183 175.848 104.259 176.286 104.348 176.722C104.436 177.158 104.546 177.588 104.652 178.014C104.735 178.298 104.82 178.581 104.914 178.862C105.055 179.279 105.219 179.697 105.375 180.105C105.487 180.376 105.606 180.648 105.731 180.916C105.978 181.449 106.252 181.97 106.548 182.479C106.844 182.988 107.158 183.485 107.511 183.966C107.767 184.326 108.038 184.68 108.319 185.021C108.697 185.478 109.093 185.935 109.513 186.34C111.334 188.176 113.512 189.617 115.913 190.574L116.017 190.616C116.146 190.388 116.288 190.167 116.444 189.955C117.358 188.702 118.949 187.822 120.463 188.151C120.573 188.175 120.683 188.209 120.793 188.242C121.561 188.513 122.316 188.998 123.057 189.236C123.326 189.357 123.619 189.418 123.914 189.414C124.209 189.41 124.5 189.342 124.767 189.214C126.248 188.425 125.699 185.935 126.97 184.844C127.029 184.794 127.091 184.747 127.156 184.704C127.138 184.682 127.122 184.658 127.107 184.634C128.089 184.024 129.448 184.43 130.578 184.823C131.798 185.252 133.388 185.542 134.236 184.545C134.809 183.863 134.766 182.824 135.311 182.107C135.945 181.284 137.14 181.193 138.173 181.339L138.225 181.355C140.206 182.171 142.37 180.815 142.217 178.679C142.037 175.829 142.933 173.144 143.138 172.562Z" fill="url(#paint1_linear)"/>
</g>
<path d="M116.788 189.017C117.678 187.798 119.205 186.945 120.668 187.277C122.13 187.609 123.517 189.002 124.818 188.304C126.598 187.353 125.337 183.857 128.226 183.598C128.828 183.558 129.431 183.663 129.984 183.903C131.203 184.4 133.111 184.961 134.05 183.842C134.601 183.184 134.562 182.181 135.089 181.498C135.698 180.706 136.86 180.605 137.85 180.758L137.899 180.773C139.81 181.562 141.9 180.252 141.751 178.192C141.559 175.449 142.431 172.865 142.62 172.304L146.24 161.543C147.78 156.929 147.431 151.894 145.27 147.537C143.108 143.181 139.31 139.857 134.705 138.292C130.092 136.754 125.058 137.105 120.703 139.267C116.347 141.429 113.025 145.227 111.461 149.831L105.753 166.754C104.269 171.205 104.541 176.054 106.514 180.311C108.486 184.568 112.01 187.911 116.364 189.657C116.493 189.435 116.634 189.222 116.788 189.017Z" fill="white"/>
<path opacity="0.2" d="M123.535 150.123C124.631 150.123 125.519 149.235 125.519 148.139C125.519 147.044 124.631 146.155 123.535 146.155C122.44 146.155 121.551 147.044 121.551 148.139C121.551 149.235 122.44 150.123 123.535 150.123Z" fill="black"/>
<path opacity="0.2" d="M134.818 153.917C135.913 153.917 136.802 153.029 136.802 151.933C136.802 150.837 135.913 149.949 134.818 149.949C133.722 149.949 132.833 150.837 132.833 151.933C132.833 153.029 133.722 153.917 134.818 153.917Z" fill="black"/>
<path d="M128.534 158.209C129.058 156.652 128.641 155.107 127.602 154.757C126.564 154.408 125.297 155.387 124.773 156.944C124.249 158.501 124.666 160.046 125.705 160.396C126.743 160.745 128.01 159.766 128.534 158.209Z" fill="#E0E0E0"/>
<path d="M168.39 151.553C170.033 151.553 171.364 150.221 171.364 148.578C171.364 146.935 170.033 145.604 168.39 145.604C166.747 145.604 165.416 146.935 165.416 148.578C165.416 150.221 166.747 151.553 168.39 151.553Z" fill="white"/>
<path d="M177.813 145.387C178.635 145.387 179.301 144.721 179.301 143.899C179.301 143.078 178.635 142.412 177.813 142.412C176.992 142.412 176.326 143.078 176.326 143.899C176.326 144.721 176.992 145.387 177.813 145.387Z" fill="white"/>
<g opacity="0.5">
<g opacity="0.3">
<path opacity="0.3" d="M147.1 52.7908L150.857 41.6395C152.15 37.7561 152.16 33.5603 150.887 29.6706C149.614 25.7808 147.125 22.403 143.787 20.0349L143.817 20.0166C142.339 18.9761 140.718 18.1549 139.005 17.5786L138.953 17.5603L138.895 17.542C137.232 16.9795 135.499 16.6533 133.745 16.5728C133.125 16.5408 132.503 16.5408 131.883 16.5728C130.807 16.6292 129.737 16.777 128.686 17.0147C128.381 17.0818 128.076 17.158 127.799 17.2403C127.522 17.3226 127.211 17.4109 126.921 17.5054C126.342 17.6974 125.772 17.9138 125.215 18.1606C124.934 18.2826 124.657 18.4105 124.386 18.5477C123.566 18.9526 122.776 19.4171 122.024 19.9374C121.771 20.1111 121.524 20.2909 121.28 20.4738C118.268 22.7647 116.013 25.9074 114.807 29.4947L108.901 47.0643C107.971 49.8197 107.692 52.7528 108.084 55.6342C108.145 56.0761 108.221 56.5149 108.31 56.9507C108.398 57.3866 108.508 57.8163 108.614 58.2429C108.697 58.5264 108.782 58.8098 108.876 59.0902C109.017 59.5077 109.181 59.9252 109.337 60.3336C109.449 60.6048 109.568 60.8761 109.693 61.1443C109.94 61.6776 110.214 62.1987 110.51 62.7077C110.806 63.2167 111.119 63.7134 111.473 64.1949C111.729 64.5546 112 64.9081 112.281 65.2494C112.658 65.7066 113.055 66.1485 113.475 66.569C115.296 68.4042 117.474 69.8452 119.875 70.8022L119.979 70.8448C120.108 70.6161 120.25 70.3953 120.406 70.1835C121.32 68.9309 122.911 68.0502 124.425 68.3793C124.535 68.4037 124.645 68.4372 124.754 68.4707C125.522 68.742 126.278 69.2266 127.019 69.4643C127.288 69.5853 127.581 69.6461 127.876 69.6424C128.171 69.6387 128.462 69.5707 128.729 69.4429C130.21 68.6536 129.661 66.1637 130.932 65.0727C130.991 65.0223 131.053 64.9755 131.118 64.9325C131.1 64.9103 131.084 64.8869 131.069 64.8624C132.05 64.2528 133.41 64.6582 134.54 65.0513C135.759 65.481 137.35 65.7706 138.198 64.774C138.77 64.0913 138.728 63.0521 139.273 62.3359C139.907 61.513 141.102 61.4216 142.135 61.5679H142.187C144.168 62.3847 146.332 61.0285 146.179 58.8921C145.999 56.0578 146.895 53.3728 147.1 52.7908Z" fill="url(#paint2_linear)"/>
</g>
<path opacity="0.5" d="M120.75 69.2445C121.64 68.0255 123.167 67.1722 124.629 67.5044C126.092 67.8365 127.479 69.2293 128.78 68.5314C130.56 67.5805 129.298 64.0849 132.188 63.8259C132.79 63.7861 133.393 63.8906 133.946 64.1306C135.165 64.6274 137.073 65.1882 138.012 64.0697C138.563 63.4114 138.524 62.4087 139.051 61.7261C139.66 60.9337 140.821 60.8331 141.812 60.9855L141.861 61.0007C143.772 61.7901 145.862 60.4796 145.713 58.4194C145.521 55.6765 146.393 53.0922 146.581 52.5314L150.202 41.7703C151.742 37.157 151.393 32.1218 149.232 27.765C147.07 23.4083 143.272 20.0844 138.667 18.52C134.054 16.982 129.02 17.3322 124.665 19.4942C120.309 21.6562 116.987 25.4542 115.423 30.0583L109.714 46.9817C108.231 51.4326 108.503 56.282 110.475 60.5389C112.448 64.7958 115.971 68.1388 120.326 69.8845C120.455 69.6631 120.596 69.4494 120.75 69.2445Z" fill="white"/>
<path opacity="0.2" d="M127.497 30.3518C128.593 30.3518 129.481 29.4635 129.481 28.3678C129.481 27.2721 128.593 26.3838 127.497 26.3838C126.401 26.3838 125.513 27.2721 125.513 28.3678C125.513 29.4635 126.401 30.3518 127.497 30.3518Z" fill="black"/>
<path opacity="0.2" d="M138.779 34.1457C139.875 34.1457 140.763 33.2575 140.763 32.1617C140.763 31.066 139.875 30.1777 138.779 30.1777C137.684 30.1777 136.795 31.066 136.795 32.1617C136.795 33.2575 137.684 34.1457 138.779 34.1457Z" fill="black"/>
</g>
<path opacity="0.1" d="M173.568 30.3018C174.134 32.4916 174.42 34.7446 174.418 37.0065C174.418 55.6793 154.88 70.8168 130.776 70.8168C111.049 70.8046 94.3815 60.6682 88.9902 46.7589C92.9948 62.2317 110.628 73.8827 131.782 73.8827C155.885 73.8827 175.427 58.7452 175.427 40.0724C175.421 36.7282 174.79 33.4146 173.568 30.3018Z" fill="black"/>
<g opacity="0.8">
<path opacity="0.8" d="M131.657 78.6559C181.509 78.6559 221.921 68.0936 221.921 55.0643C221.921 42.035 181.509 31.4727 131.657 31.4727C81.8053 31.4727 41.3926 42.035 41.3926 55.0643C41.3926 68.0936 81.8053 78.6559 131.657 78.6559Z" fill="url(#paint3_linear)"/>
</g>
<path d="M131.657 32.2529C83.4498 32.2529 44.3672 42.4655 44.3672 55.0674H218.947C218.947 42.4655 179.864 32.2529 131.657 32.2529Z" fill="white"/>
<path d="M131.657 77.8788C179.864 77.8788 218.947 67.6662 218.947 55.0674H44.3672C44.3672 67.6662 83.4498 77.8788 131.657 77.8788Z" fill="white"/>
<path opacity="0.05" d="M131.657 77.8788C179.864 77.8788 218.947 67.6662 218.947 55.0674H44.3672C44.3672 67.6662 83.4498 77.8788 131.657 77.8788Z" fill="black"/>
<path opacity="0.05" d="M168.07 49.1123H95.2441C92.3457 49.1123 89.9961 51.4619 89.9961 54.3603V55.7683C89.9961 58.6667 92.3457 61.0163 95.2441 61.0163H168.07C170.968 61.0163 173.318 58.6667 173.318 55.7683V54.3603C173.318 51.4619 170.968 49.1123 168.07 49.1123Z" fill="black"/>
<path opacity="0.5" d="M40.8046 17.6189C40.5528 17.509 40.3501 17.3105 40.235 17.0611C40.1198 16.8117 40.1002 16.5287 40.1799 16.2657C40.1926 16.2251 40.2008 16.1832 40.2042 16.1408C40.212 16.0202 40.1806 15.9003 40.1147 15.799C40.0488 15.6977 39.952 15.6203 39.8386 15.5785C39.7252 15.5368 39.6013 15.5327 39.4854 15.567C39.3695 15.6013 39.2678 15.6722 39.1955 15.769C39.1711 15.8031 39.1506 15.8399 39.1345 15.8787C39.0252 16.1309 38.8268 16.3341 38.5772 16.4493C38.3276 16.5645 38.0443 16.5838 37.7814 16.5035C37.7407 16.491 37.6988 16.4828 37.6564 16.4791C37.5358 16.4713 37.4159 16.5027 37.3146 16.5686C37.2133 16.6345 37.136 16.7313 37.0942 16.8447C37.0524 16.9581 37.0483 17.082 37.0827 17.1979C37.117 17.3138 37.1878 17.4155 37.2846 17.4878C37.3183 17.5138 37.3552 17.5353 37.3943 17.5518C37.6461 17.6617 37.8488 17.8602 37.964 18.1096C38.0792 18.359 38.0988 18.6421 38.0191 18.905C38.0066 18.9446 37.9984 18.9855 37.9947 19.0269C37.9862 19.1478 38.0171 19.2682 38.0827 19.37C38.1483 19.4719 38.2452 19.5498 38.3588 19.592C38.4723 19.6342 38.5966 19.6385 38.7128 19.6042C38.829 19.5699 38.931 19.4989 39.0035 19.4017C39.0285 19.3669 39.049 19.329 39.0644 19.289C39.1765 19.0395 39.376 18.8398 39.6253 18.7275C39.8747 18.6152 40.1565 18.5981 40.4176 18.6795C40.4583 18.6919 40.5001 18.7001 40.5425 18.7038C40.6631 18.7116 40.783 18.6802 40.8843 18.6143C40.9857 18.5484 41.063 18.4516 41.1048 18.3382C41.1466 18.2248 41.1506 18.1009 41.1163 17.985C41.082 17.8691 41.0111 17.7674 40.9143 17.6951C40.8814 17.6648 40.8445 17.6392 40.8046 17.6189Z" fill="#4D8AF0"/>
<path opacity="0.5" d="M195.929 110.876C195.68 110.763 195.48 110.564 195.368 110.314C195.256 110.065 195.238 109.784 195.319 109.523C195.332 109.482 195.34 109.44 195.343 109.398C195.351 109.277 195.32 109.157 195.254 109.056C195.188 108.954 195.091 108.877 194.978 108.835C194.864 108.794 194.74 108.79 194.625 108.824C194.509 108.858 194.407 108.929 194.335 109.026C194.31 109.06 194.29 109.097 194.274 109.136C194.164 109.388 193.966 109.591 193.716 109.706C193.467 109.821 193.183 109.841 192.921 109.76C192.88 109.748 192.838 109.74 192.796 109.736C192.675 109.728 192.555 109.76 192.454 109.825C192.352 109.891 192.275 109.988 192.233 110.102C192.192 110.215 192.187 110.339 192.222 110.455C192.256 110.571 192.327 110.672 192.424 110.745C192.457 110.771 192.494 110.792 192.533 110.809C192.783 110.921 192.982 111.121 193.094 111.37C193.206 111.619 193.224 111.901 193.143 112.162C193.131 112.201 193.122 112.242 193.119 112.284C193.11 112.405 193.141 112.525 193.207 112.627C193.272 112.729 193.369 112.807 193.483 112.849C193.596 112.891 193.72 112.895 193.837 112.861C193.953 112.827 194.055 112.756 194.127 112.659C194.152 112.624 194.173 112.586 194.188 112.546C194.3 112.296 194.5 112.097 194.749 111.984C194.999 111.872 195.28 111.855 195.542 111.936C195.582 111.949 195.624 111.957 195.666 111.961C195.787 111.968 195.907 111.937 196.008 111.871C196.11 111.805 196.187 111.708 196.229 111.595C196.271 111.482 196.275 111.358 196.24 111.242C196.206 111.126 196.135 111.024 196.038 110.952C196.005 110.922 195.968 110.896 195.929 110.876Z" fill="#4D8AF0"/>
<path opacity="0.5" d="M24.6523 154.152C24.4005 154.042 24.1978 153.844 24.0826 153.594C23.9674 153.345 23.9478 153.062 24.0275 152.799C24.0403 152.758 24.0485 152.716 24.0519 152.674C24.0597 152.553 24.0283 152.433 23.9624 152.332C23.8965 152.231 23.7996 152.154 23.6862 152.112C23.5728 152.07 23.4489 152.066 23.3331 152.1C23.2172 152.135 23.1155 152.205 23.0431 152.302C23.0187 152.336 22.9983 152.373 22.9822 152.412C22.8728 152.664 22.6744 152.867 22.4248 152.983C22.1752 153.098 21.8919 153.117 21.629 153.037C21.5883 153.024 21.5465 153.016 21.5041 153.012C21.3835 153.005 21.2636 153.036 21.1623 153.102C21.0609 153.168 20.9836 153.265 20.9418 153.378C20.9 153.491 20.896 153.615 20.9303 153.731C20.9646 153.847 21.0355 153.949 21.1323 154.021C21.1659 154.047 21.2028 154.069 21.242 154.085C21.4938 154.195 21.6965 154.393 21.8116 154.643C21.9268 154.892 21.9464 155.175 21.8667 155.438C21.8542 155.478 21.8461 155.519 21.8424 155.56C21.8338 155.681 21.8647 155.801 21.9303 155.903C21.996 156.005 22.0928 156.083 22.2064 156.125C22.32 156.167 22.4442 156.172 22.5604 156.137C22.6767 156.103 22.7786 156.032 22.8511 155.935C22.8762 155.9 22.8966 155.862 22.9121 155.822C23.0241 155.573 23.2237 155.373 23.473 155.261C23.7223 155.148 24.0041 155.131 24.2652 155.213C24.3059 155.225 24.3478 155.233 24.3902 155.237C24.5108 155.245 24.6307 155.213 24.732 155.148C24.8333 155.082 24.9106 154.985 24.9524 154.871C24.9942 154.758 24.9983 154.634 24.9639 154.518C24.9296 154.402 24.8588 154.301 24.762 154.228C24.729 154.198 24.6921 154.172 24.6523 154.152Z" fill="#4D8AF0"/>
<path opacity="0.5" d="M7.89045 53.2751C7.64144 53.1626 7.4421 52.963 7.32987 52.7138C7.21763 52.4646 7.20023 52.1831 7.28093 51.922C7.29372 51.8814 7.3019 51.8395 7.30531 51.797C7.31309 51.6764 7.28169 51.5565 7.2158 51.4552C7.14991 51.3539 7.05304 51.2766 6.93964 51.2348C6.82624 51.193 6.70237 51.189 6.58648 51.2233C6.4706 51.2576 6.3689 51.3284 6.29655 51.4252C6.27214 51.4594 6.2517 51.4962 6.2356 51.535C6.12625 51.7872 5.92784 51.9903 5.67824 52.1056C5.42865 52.2208 5.14536 52.2401 4.88245 52.1597C4.84177 52.1472 4.79989 52.1391 4.7575 52.1353C4.63689 52.1276 4.517 52.159 4.41568 52.2248C4.31436 52.2907 4.23704 52.3876 4.19525 52.501C4.15345 52.6144 4.14941 52.7383 4.18373 52.8542C4.21804 52.97 4.28888 53.0717 4.38569 53.1441C4.41935 53.1701 4.45623 53.1916 4.4954 53.2081C4.7472 53.318 4.9499 53.5165 5.06506 53.7659C5.18023 54.0153 5.19983 54.2983 5.12017 54.5612C5.10766 54.6009 5.09949 54.6417 5.09578 54.6831C5.08726 54.804 5.11812 54.9244 5.18375 55.0263C5.24938 55.1281 5.34624 55.206 5.45983 55.2482C5.57342 55.2904 5.69763 55.2947 5.81385 55.2604C5.93008 55.2261 6.03206 55.1551 6.10455 55.058C6.12959 55.0232 6.15007 54.9853 6.1655 54.9452C6.27754 54.6958 6.47709 54.496 6.72642 54.3837C6.97574 54.2714 7.25758 54.2543 7.51864 54.3357C7.55933 54.3482 7.60121 54.3563 7.64359 54.3601C7.7642 54.3679 7.8841 54.3365 7.98541 54.2706C8.08673 54.2047 8.16405 54.1078 8.20584 53.9944C8.24764 53.881 8.25168 53.7572 8.21737 53.6413C8.18305 53.5254 8.11221 53.4237 8.0154 53.3513C7.97777 53.3199 7.93565 53.2942 7.89045 53.2751Z" fill="#4D8AF0"/>
<path opacity="0.5" d="M192.881 2.07592C192.632 1.96336 192.432 1.76375 192.32 1.51459C192.208 1.26543 192.19 0.983867 192.271 0.722783C192.284 0.68218 192.292 0.640264 192.296 0.59783C192.303 0.477221 192.272 0.357326 192.206 0.256009C192.14 0.154693 192.043 0.077376 191.93 0.0355784C191.816 -0.00621917 191.693 -0.01026 191.577 0.0240573C191.461 0.0583746 191.359 0.129213 191.287 0.22602C191.262 0.260167 191.242 0.296974 191.226 0.335734C191.114 0.585182 190.914 0.784941 190.665 0.897251C190.416 1.00956 190.134 1.02664 189.873 0.945258C189.832 0.932792 189.79 0.92462 189.748 0.920877C189.616 0.893319 189.479 0.913798 189.362 0.978591C189.244 1.04338 189.154 1.14819 189.107 1.27398C189.06 1.39977 189.06 1.53818 189.107 1.66409C189.153 1.78999 189.243 1.89503 189.361 1.96012C189.394 1.98608 189.431 2.0076 189.47 2.02412C189.719 2.13668 189.919 2.33629 190.031 2.58545C190.143 2.83461 190.161 3.11618 190.08 3.37726C190.067 3.4169 190.059 3.45777 190.055 3.49916C190.043 3.62466 190.072 3.75083 190.14 3.85729C190.208 3.96374 190.309 4.04427 190.429 4.08585C190.548 4.12743 190.677 4.12764 190.796 4.08643C190.916 4.04523 191.018 3.96503 191.086 3.85878C191.111 3.82395 191.131 3.78605 191.147 3.74602C191.259 3.49657 191.458 3.29681 191.707 3.1845C191.957 3.07219 192.239 3.05512 192.5 3.1365C192.54 3.14896 192.582 3.15714 192.625 3.16088C192.745 3.16866 192.865 3.13726 192.966 3.07137C193.068 3.00547 193.145 2.90861 193.187 2.79521C193.229 2.68181 193.233 2.55794 193.198 2.44205C193.164 2.32617 193.093 2.22447 192.996 2.15211C192.962 2.1214 192.923 2.09575 192.881 2.07592Z" fill="#4D8AF0"/>
<g opacity="0.5">
<path opacity="0.5" d="M34.4382 78.583H33.5239V83.764H34.4382V78.583Z" fill="#47E6B1"/>
<path opacity="0.5" d="M36.5718 81.6311V80.7168H31.3908V81.6311H36.5718Z" fill="#47E6B1"/>
</g>
<g opacity="0.5">
<path opacity="0.5" d="M253.867 54.2021H252.952V59.3831H253.867V54.2021Z" fill="#47E6B1"/>
<path opacity="0.5" d="M256 57.2503V56.3359H250.819V57.2503H256Z" fill="#47E6B1"/>
</g>
<g opacity="0.5">
<path opacity="0.5" d="M223.391 139.23H222.476V144.411H223.391V139.23Z" fill="#47E6B1"/>
<path opacity="0.5" d="M225.524 142.279V141.364H220.343V142.279H225.524Z" fill="#47E6B1"/>
</g>
<path opacity="0.5" d="M220.343 26.7734C221.353 26.7734 222.171 25.9547 222.171 24.9448C222.171 23.9349 221.353 23.1162 220.343 23.1162C219.333 23.1162 218.514 23.9349 218.514 24.9448C218.514 25.9547 219.333 26.7734 220.343 26.7734Z" fill="#F55F44"/>
<path opacity="0.5" d="M1.82857 5.74503C2.83846 5.74503 3.65714 4.92635 3.65714 3.91646C3.65714 2.90657 2.83846 2.08789 1.82857 2.08789C0.818679 2.08789 0 2.90657 0 3.91646C0 4.92635 0.818679 5.74503 1.82857 5.74503Z" fill="#F55F44"/>
<path opacity="0.5" d="M56.6855 110.888C57.6954 110.888 58.5141 110.069 58.5141 109.059C58.5141 108.049 57.6954 107.23 56.6855 107.23C55.6756 107.23 54.8569 108.049 54.8569 109.059C54.8569 110.069 55.6756 110.888 56.6855 110.888Z" fill="#F55F44"/>
<path opacity="0.05" d="M71.3141 49.1973C77.0368 49.1973 81.676 48.2422 81.676 47.064C81.676 45.8858 77.0368 44.9307 71.3141 44.9307C65.5913 44.9307 60.9521 45.8858 60.9521 47.064C60.9521 48.2422 65.5913 49.1973 71.3141 49.1973Z" fill="black"/>
<path opacity="0.05" d="M71.3141 65.3496C77.0368 65.3496 81.676 64.3945 81.676 63.2163C81.676 62.0381 77.0368 61.083 71.3141 61.083C65.5913 61.083 60.9521 62.0381 60.9521 63.2163C60.9521 64.3945 65.5913 65.3496 71.3141 65.3496Z" fill="black"/>
<path opacity="0.05" d="M189.257 49.1973C194.98 49.1973 199.619 48.2422 199.619 47.064C199.619 45.8858 194.98 44.9307 189.257 44.9307C183.534 44.9307 178.895 45.8858 178.895 47.064C178.895 48.2422 183.534 49.1973 189.257 49.1973Z" fill="black"/>
<path opacity="0.05" d="M189.257 65.3496C194.98 65.3496 199.619 64.3945 199.619 63.2163C199.619 62.0381 194.98 61.083 189.257 61.083C183.534 61.083 178.895 62.0381 178.895 63.2163C178.895 64.3945 183.534 65.3496 189.257 65.3496Z" fill="black"/>
<path opacity="0.05" d="M131.657 40.0548C137.38 40.0548 142.019 39.0996 142.019 37.9214C142.019 36.7432 137.38 35.7881 131.657 35.7881C125.935 35.7881 121.295 36.7432 121.295 37.9214C121.295 39.0996 125.935 40.0548 131.657 40.0548Z" fill="black"/>
<path opacity="0.05" d="M139.276 17.8067C144.999 17.8067 149.638 16.8516 149.638 15.6734C149.638 14.4952 144.999 13.54 139.276 13.54C133.553 13.54 128.914 14.4952 128.914 15.6734C128.914 16.8516 133.553 17.8067 139.276 17.8067Z" fill="black"/>
<path opacity="0.05" d="M119.467 26.9503C125.19 26.9503 129.829 25.9951 129.829 24.8169C129.829 23.6387 125.19 22.6836 119.467 22.6836C113.744 22.6836 109.105 23.6387 109.105 24.8169C109.105 25.9951 113.744 26.9503 119.467 26.9503Z" fill="black"/>
<path opacity="0.05" d="M157.562 30.9122C163.285 30.9122 167.924 29.9571 167.924 28.7788C167.924 27.6006 163.285 26.6455 157.562 26.6455C151.839 26.6455 147.2 27.6006 147.2 28.7788C147.2 29.9571 151.839 30.9122 157.562 30.9122Z" fill="black"/>
<path opacity="0.05" d="M131.657 71.7501C137.38 71.7501 142.019 70.7949 142.019 69.6167C142.019 68.4385 137.38 67.4834 131.657 67.4834C125.935 67.4834 121.295 68.4385 121.295 69.6167C121.295 70.7949 125.935 71.7501 131.657 71.7501Z" fill="black"/>
</g>
<defs>
<linearGradient id="paint0_linear" x1="131.657" y1="74.9037" x2="131.657" y2="5.74414" gradientUnits="userSpaceOnUse">
<stop stop-color="#808080" stop-opacity="0.25"/>
<stop offset="0.54" stop-color="#808080" stop-opacity="0.12"/>
<stop offset="1" stop-color="#808080" stop-opacity="0.1"/>
</linearGradient>
<linearGradient id="paint1_linear" x1="-14353.8" y1="104916" x2="-11132" y2="95351.4" gradientUnits="userSpaceOnUse">
<stop stop-color="#808080" stop-opacity="0.25"/>
<stop offset="0.54" stop-color="#808080" stop-opacity="0.12"/>
<stop offset="1" stop-color="#808080" stop-opacity="0.1"/>
</linearGradient>
<linearGradient id="paint2_linear" x1="-12483" y1="83788.4" x2="-9261.2" y2="74223.7" gradientUnits="userSpaceOnUse">
<stop stop-color="#808080" stop-opacity="0.25"/>
<stop offset="0.54" stop-color="#808080" stop-opacity="0.12"/>
<stop offset="1" stop-color="#808080" stop-opacity="0.1"/>
</linearGradient>
<linearGradient id="paint3_linear" x1="78029.8" y1="12209" x2="78029.8" y2="4904.09" gradientUnits="userSpaceOnUse">
<stop stop-color="#808080" stop-opacity="0.25"/>
<stop offset="0.54" stop-color="#808080" stop-opacity="0.12"/>
<stop offset="1" stop-color="#808080" stop-opacity="0.1"/>
</linearGradient>
<clipPath id="clip0">
<rect width="256" height="221.516" fill="white"/>
</clipPath>
</defs>
</svg>
