<svg width="256" height="133" viewBox="0 0 256 133" fill="none" xmlns="http://www.w3.org/2000/svg">
<g clip-path="url(#clip0)">
<path d="M128 118.229C198.692 118.229 256 116.626 256 114.649C256 112.671 198.692 111.068 128 111.068C57.3075 111.068 0 112.671 0 114.649C0 116.626 57.3075 118.229 128 118.229Z" fill="#E6E6E6"/>
<path d="M196.215 75.8523C196.053 75.8545 195.892 75.8567 195.728 75.8567C195.564 75.8567 195.402 75.8545 195.241 75.8523C186.672 75.6575 180.462 70.3039 182.043 64.6869L185.898 50.9842L186.872 47.517L204.141 47.8115L205.191 51.2034L209.322 64.5541C211.071 70.2021 204.861 75.6575 196.215 75.8523Z" fill="#3F3D56"/>
<path opacity="0.2" d="M205.191 51.2034C202.246 52.8866 198.906 53.7536 195.514 53.7151C192.123 53.6766 188.803 52.7338 185.898 50.9842L186.872 47.517L204.141 47.8115L205.191 51.2034Z" fill="black"/>
<path d="M204.462 65.1416C205.208 62.3613 207.66 58.3505 214.536 53.5146C226.528 45.0797 219.374 38.7551 219.064 38.4901C218.414 37.9342 218.51 37.3101 219.287 37.0969C219.739 37.0066 220.205 37.0139 220.654 37.1183C221.102 37.2227 221.523 37.4219 221.889 37.7024C222.277 38.0235 231.235 45.6734 217.703 55.1901C205.525 63.7562 208.114 69.3479 208.144 69.4015C208.47 69.9996 207.947 70.4781 206.974 70.4716C206.001 70.4652 204.947 69.9756 204.619 69.3782C204.551 69.2518 203.767 67.7299 204.462 65.1416Z" fill="#3F3D56"/>
<path d="M187.757 77.8493C187.496 77.8493 187.237 77.7977 186.995 77.6976C186.753 77.5975 186.533 77.4507 186.348 77.2657C186.163 77.0806 186.017 76.8609 185.916 76.6192C185.816 76.3774 185.765 76.1183 185.765 75.8566V67.2219C185.765 66.6934 185.975 66.1866 186.348 65.8129C186.722 65.4392 187.229 65.2292 187.757 65.2292C188.286 65.2292 188.793 65.4392 189.166 65.8129C189.54 66.1866 189.75 66.6934 189.75 67.2219V75.8566C189.75 76.1183 189.698 76.3774 189.598 76.6192C189.498 76.8609 189.351 77.0806 189.166 77.2657C188.981 77.4507 188.762 77.5975 188.52 77.6976C188.278 77.7977 188.019 77.8493 187.757 77.8493V77.8493Z" fill="#3F3D56"/>
<path d="M189.504 57.3502C189.395 57.5879 189.24 57.8017 189.048 57.9795C188.856 58.1573 188.631 58.2955 188.385 58.3863C188.14 58.477 187.879 58.5185 187.618 58.5085C187.356 58.4984 187.099 58.4369 186.861 58.3275L179.017 54.7184C178.537 54.4972 178.165 54.0946 177.982 53.5992C177.8 53.1038 177.821 52.556 178.042 52.0762C178.262 51.5964 178.664 51.2239 179.16 51.0405C179.655 50.8571 180.203 50.8777 180.683 51.098L188.527 54.707C188.765 54.8164 188.979 54.9715 189.156 55.1636C189.334 55.3556 189.472 55.5807 189.563 55.8262C189.654 56.0716 189.695 56.3325 189.685 56.594C189.675 56.8555 189.614 57.1124 189.504 57.3502V57.3502Z" fill="#3F3D56"/>
<path d="M201.951 57.3501C202.061 57.5878 202.216 57.8017 202.408 57.9795C202.6 58.1572 202.825 58.2955 203.07 58.3862C203.316 58.477 203.577 58.5185 203.838 58.5084C204.1 58.4983 204.357 58.4368 204.594 58.3275L212.439 54.7184C212.919 54.4975 213.292 54.0949 213.475 53.5993C213.658 53.1036 213.637 52.5554 213.416 52.0753C213.195 51.5952 212.793 51.2225 212.297 51.0392C211.801 50.8559 211.253 50.877 210.773 51.0979L202.929 54.707C202.691 54.8164 202.477 54.9715 202.299 55.1635C202.122 55.3555 201.983 55.5807 201.893 55.8261C201.802 56.0716 201.76 56.3325 201.77 56.594C201.78 56.8554 201.842 57.1124 201.951 57.3501V57.3501Z" fill="#3F3D56"/>
<path d="M203.698 77.8493C203.96 77.8493 204.219 77.7977 204.461 77.6976C204.703 77.5975 204.922 77.4507 205.107 77.2657C205.292 77.0806 205.439 76.8609 205.539 76.6192C205.639 76.3774 205.691 76.1183 205.691 75.8566V67.2219C205.691 66.6934 205.481 66.1866 205.107 65.8129C204.734 65.4392 204.227 65.2292 203.698 65.2292C203.17 65.2292 202.663 65.4392 202.289 65.8129C201.916 66.1866 201.706 66.6934 201.706 67.2219V75.8566C201.706 76.1183 201.757 76.3774 201.857 76.6192C201.958 76.8609 202.104 77.0806 202.289 77.2657C202.474 77.4507 202.694 77.5975 202.936 77.6976C203.178 77.7977 203.437 77.8493 203.698 77.8493V77.8493Z" fill="#3F3D56"/>
<path d="M212.026 21.9481C212.198 21.7312 212.322 21.4803 212.391 21.2119C212.459 20.9434 212.469 20.6636 212.421 20.3908L211.337 14.0109L210.252 7.63107C210.194 7.2866 210.046 6.96361 209.823 6.69457C209.6 6.42553 209.31 6.21991 208.982 6.09839C208.655 5.97687 208.301 5.94372 207.956 6.00227C207.612 6.06083 207.289 6.20903 207.02 6.43197L202.037 10.5611L199.035 13.0488C197.033 12.6928 194.987 12.6619 192.975 12.9574L190.083 10.5611L185.1 6.43197C184.831 6.20903 184.508 6.06083 184.164 6.00228C183.819 5.94372 183.465 5.97687 183.138 6.0984C182.81 6.21992 182.52 6.42553 182.297 6.69457C182.074 6.96361 181.926 7.2866 181.868 7.63107L180.783 14.011L179.699 20.3908C179.641 20.7261 179.671 21.0707 179.785 21.391C177.927 24.2402 176.866 27.5354 176.712 30.9337C176.559 34.332 177.319 37.7094 178.913 40.7144C180.507 43.7195 182.878 46.2426 185.777 48.0211C188.677 49.7996 192.001 50.7686 195.402 50.8274C198.803 50.8862 202.158 50.0325 205.118 48.3552C208.077 46.678 210.533 44.2383 212.23 41.2901C213.927 38.3419 214.804 34.9928 214.768 31.5912C214.732 28.1896 213.785 24.8598 212.026 21.9481V21.9481Z" fill="#3F3D56"/>
<path d="M184.601 9.04633C184.483 9.0465 184.365 9.06777 184.255 9.10914C184.092 9.16839 183.948 9.26991 183.837 9.40327C183.727 9.53663 183.654 9.69701 183.626 9.86794L182.311 17.6048C182.282 17.7753 182.298 17.9505 182.358 18.1127C182.418 18.2749 182.52 18.4184 182.653 18.5287C182.787 18.6391 182.946 18.7125 183.117 18.7414C183.288 18.7704 183.463 18.754 183.625 18.6938L190.983 15.9643C191.145 15.9042 191.288 15.8024 191.399 15.6692C191.509 15.536 191.583 15.3761 191.612 15.2056C191.641 15.0351 191.624 14.8599 191.564 14.6978C191.504 14.5356 191.402 14.3921 191.269 14.2818L191.269 14.2815L185.226 9.27432C185.051 9.12744 184.829 9.04675 184.601 9.04633V9.04633Z" fill="#E6E6E6"/>
<path d="M207.519 9.04633C207.291 9.04675 207.069 9.12744 206.894 9.27432L200.851 14.2818C200.718 14.3921 200.616 14.5356 200.556 14.6978C200.496 14.8599 200.48 15.0351 200.509 15.2056C200.538 15.3761 200.611 15.536 200.721 15.6692C200.832 15.8024 200.975 15.9042 201.137 15.9643L208.495 18.6938C208.657 18.754 208.832 18.7704 209.003 18.7414C209.173 18.7125 209.333 18.6391 209.467 18.5287C209.6 18.4184 209.702 18.2749 209.762 18.1127C209.822 17.9505 209.838 17.7753 209.809 17.6048L208.494 9.86794C208.466 9.69701 208.393 9.53663 208.283 9.40327C208.172 9.26991 208.028 9.16839 207.865 9.10914C207.755 9.06777 207.637 9.0465 207.519 9.04633Z" fill="#E6E6E6"/>
<path d="M195.728 37.111C197.195 37.111 198.385 35.9215 198.385 34.4541C198.385 32.9868 197.195 31.7973 195.728 31.7973C194.261 31.7973 193.071 32.9868 193.071 34.4541C193.071 35.9215 194.261 37.111 195.728 37.111Z" fill="#E6E6E6"/>
<path d="M195.728 33.7898C196.706 33.7898 197.499 33.4925 197.499 33.1256C197.499 32.7588 196.706 32.4614 195.728 32.4614C194.75 32.4614 193.957 32.7588 193.957 33.1256C193.957 33.4925 194.75 33.7898 195.728 33.7898Z" fill="#3F3D56"/>
<path d="M194.399 36.0041H196.835V38.993C196.835 39.1529 196.803 39.3113 196.742 39.459C196.681 39.6068 196.591 39.741 196.478 39.8541C196.365 39.9672 196.231 40.0569 196.083 40.1181C195.935 40.1793 195.777 40.2108 195.617 40.2108V40.2108C195.294 40.2108 194.984 40.0825 194.756 39.8541C194.528 39.6257 194.399 39.316 194.399 38.993V36.0041H194.399Z" fill="#FF6584"/>
<path d="M195.876 5.8681C195.748 6.13294 195.624 6.40064 195.507 6.67382C194.133 9.87834 193.67 13.3998 194.168 16.8507C194.417 16.489 194.679 16.1122 194.946 15.7313C194.375 12.4193 194.696 9.0151 195.876 5.8681V5.8681Z" fill="#3F3D56"/>
<path d="M197.868 8.30365C197.741 8.56849 197.617 8.83619 197.5 9.10936C196.126 12.3139 195.663 15.8354 196.161 19.2863C196.41 18.9246 196.672 18.5478 196.939 18.1668C196.368 14.8548 196.689 11.4506 197.868 8.30365V8.30365Z" fill="#3F3D56"/>
<path d="M204.012 56.1161L203.731 52.5462L203.45 48.9763C203.435 48.7836 203.37 48.5982 203.26 48.4388C203.151 48.2795 203.001 48.1518 202.827 48.0685C202.652 47.9853 202.459 47.9494 202.266 47.9646C202.073 47.9797 201.888 48.0454 201.728 48.1549L198.777 50.1829L196.622 51.6639C196.484 51.5026 196.313 51.3731 196.121 51.2843C195.928 51.1955 195.719 51.1496 195.506 51.1496C195.294 51.1496 195.085 51.1955 194.892 51.2843C194.7 51.3731 194.529 51.5026 194.391 51.6639L192.236 50.1829L189.284 48.1549C189.125 48.0454 188.94 47.9797 188.747 47.9646C188.554 47.9494 188.361 47.9853 188.186 48.0685C188.012 48.1518 187.862 48.2795 187.753 48.4388C187.643 48.5982 187.578 48.7835 187.563 48.9763L187.282 52.5462L187.001 56.1161C186.986 56.3088 187.022 56.5022 187.105 56.6767C187.188 56.8512 187.316 57.0007 187.475 57.1102C187.635 57.2197 187.82 57.2853 188.013 57.3005C188.206 57.3156 188.399 57.2798 188.573 57.1965L191.805 55.6547L194.461 54.3878C194.598 54.5263 194.76 54.6362 194.94 54.7113C195.119 54.7863 195.312 54.8249 195.506 54.8249C195.701 54.8249 195.894 54.7863 196.073 54.7113C196.252 54.6362 196.415 54.5263 196.552 54.3878L199.207 55.6547L202.439 57.1965C202.614 57.2798 202.807 57.3157 203 57.3005C203.193 57.2853 203.378 57.2197 203.537 57.1102C203.697 57.0007 203.825 56.8512 203.908 56.6767C203.991 56.5022 204.027 56.3089 204.012 56.1161V56.1161Z" fill="white"/>
<path d="M192.185 32.2403C192.552 32.2403 192.85 31.9429 192.85 31.5761C192.85 31.2092 192.552 30.9119 192.185 30.9119C191.819 30.9119 191.521 31.2092 191.521 31.5761C191.521 31.9429 191.819 32.2403 192.185 32.2403Z" fill="#E6E6E6"/>
<path d="M199.27 32.2403C199.637 32.2403 199.935 31.9429 199.935 31.5761C199.935 31.2092 199.637 30.9119 199.27 30.9119C198.904 30.9119 198.606 31.2092 198.606 31.5761C198.606 31.9429 198.904 32.2403 199.27 32.2403Z" fill="#E6E6E6"/>
<path d="M67.2124 69.9842C67.374 69.9864 67.5356 69.9886 67.6995 69.9886C67.8633 69.9886 68.0249 69.9864 68.1866 69.9842C76.7549 69.7894 82.9653 64.4358 81.3844 58.8188L77.5298 45.1161L76.5556 41.6489L59.2861 41.9434L58.2367 45.3353L54.1053 58.686C52.3562 64.334 58.5666 69.7894 67.2124 69.9842Z" fill="#3F3D56"/>
<path opacity="0.2" d="M58.2367 45.3353C61.1812 47.0185 64.5216 47.8855 67.913 47.847C71.3045 47.8085 74.6243 46.8658 77.5298 45.1161L76.5556 41.6489L59.2861 41.9434L58.2367 45.3353Z" fill="black"/>
<path d="M56.868 57.6494C55.004 55.4557 51.0717 52.8798 42.7877 51.4513C28.3396 48.959 32.0991 40.1815 32.2659 39.8094C32.6158 39.0287 32.2619 38.5057 31.4679 38.6457C31.021 38.7574 30.6031 38.9633 30.2423 39.2497C29.8815 39.536 29.5861 39.8962 29.3758 40.3061C29.1623 40.7625 24.3392 51.5097 40.6421 54.3209C55.3147 56.8519 55.367 63.0138 55.3631 63.075C55.324 63.7552 56.0018 63.9638 56.8784 63.5416C57.755 63.1195 58.4981 62.226 58.5384 61.546C58.5465 61.4023 58.6036 59.6915 56.868 57.6494Z" fill="#3F3D56"/>
<path d="M75.67 71.9814C75.9317 71.9814 76.1908 71.9298 76.4326 71.8297C76.6743 71.7296 76.894 71.5828 77.079 71.3978C77.2641 71.2127 77.4109 70.9931 77.511 70.7513C77.6111 70.5095 77.6627 70.2504 77.6627 69.9887V61.354C77.662 60.8259 77.4518 60.3197 77.0782 59.9466C76.7046 59.5734 76.1981 59.3638 75.67 59.3638C75.1419 59.3638 74.6355 59.5734 74.2618 59.9466C73.8882 60.3197 73.678 60.8259 73.6774 61.354V69.9887C73.6774 70.2504 73.7289 70.5095 73.829 70.7513C73.9292 70.9931 74.0759 71.2127 74.261 71.3978C74.446 71.5828 74.6657 71.7296 74.9074 71.8297C75.1492 71.9298 75.4083 71.9814 75.67 71.9814V71.9814Z" fill="#3F3D56"/>
<path d="M73.9229 51.482C74.0323 51.7198 74.1874 51.9336 74.3794 52.1114C74.5714 52.2892 74.7966 52.4274 75.042 52.5181C75.2875 52.6089 75.5484 52.6504 75.8099 52.6403C76.0713 52.6303 76.3283 52.5688 76.566 52.4594L84.4103 48.8503C84.6483 48.7411 84.8625 48.5861 85.0405 48.3941C85.2186 48.2021 85.357 47.9769 85.448 47.7313C85.5389 47.4857 85.5806 47.2247 85.5706 46.963C85.5606 46.7013 85.4991 46.4442 85.3896 46.2063C85.2802 45.9685 85.1249 45.7545 84.9327 45.5766C84.7405 45.3988 84.5152 45.2606 84.2695 45.1699C84.0239 45.0792 83.7627 45.0378 83.5011 45.0481C83.2394 45.0584 82.9824 45.1202 82.7446 45.2299L74.9003 48.8389C74.6625 48.9483 74.4487 49.1034 74.2709 49.2955C74.0931 49.4875 73.9549 49.7126 73.8642 49.9581C73.7734 50.2035 73.7319 50.4644 73.742 50.7259C73.752 50.9874 73.8135 51.2443 73.9229 51.482V51.482Z" fill="#3F3D56"/>
<path d="M61.4761 51.482C61.3667 51.7198 61.2116 51.9336 61.0196 52.1114C60.8276 52.2892 60.6024 52.4274 60.357 52.5181C60.1115 52.6089 59.8506 52.6504 59.5891 52.6403C59.3276 52.6303 59.0707 52.5688 58.833 52.4594L50.9886 48.8503C50.7506 48.7411 50.5365 48.5861 50.3584 48.3941C50.1804 48.2021 50.0419 47.9769 49.951 47.7313C49.86 47.4857 49.8184 47.2247 49.8284 46.963C49.8384 46.7013 49.8999 46.4442 50.0094 46.2063C50.1188 45.9685 50.2741 45.7545 50.4663 45.5766C50.6585 45.3988 50.8838 45.2606 51.1295 45.1699C51.3751 45.0792 51.6362 45.0378 51.8979 45.0481C52.1595 45.0584 52.4166 45.1202 52.6544 45.2299L60.4987 48.8389C60.7364 48.9483 60.9503 49.1034 61.1281 49.2955C61.3058 49.4875 61.4441 49.7126 61.5348 49.9581C61.6256 50.2035 61.6671 50.4644 61.657 50.7259C61.6469 50.9874 61.5855 51.2443 61.4761 51.482Z" fill="#3F3D56"/>
<path d="M59.729 71.9814C59.4673 71.9814 59.2082 71.9298 58.9664 71.8297C58.7246 71.7296 58.505 71.5828 58.3199 71.3978C58.1349 71.2127 57.9881 70.9931 57.888 70.7513C57.7879 70.5095 57.7363 70.2504 57.7363 69.9887V61.354C57.737 60.8259 57.9472 60.3197 58.3208 59.9466C58.6944 59.5734 59.2009 59.3638 59.729 59.3638C60.257 59.3638 60.7635 59.5734 61.1371 59.9466C61.5107 60.3197 61.721 60.8259 61.7216 61.354V69.9887C61.7216 70.2504 61.6701 70.5095 61.5699 70.7513C61.4698 70.9931 61.323 71.2127 61.138 71.3978C60.9529 71.5828 60.7333 71.7296 60.4915 71.8297C60.2498 71.9298 59.9906 71.9814 59.729 71.9814V71.9814Z" fill="#3F3D56"/>
<path d="M83.6419 15.5229C83.7567 15.2026 83.7866 14.858 83.7287 14.5227L82.6442 8.14279L81.5598 1.76292C81.5012 1.41845 81.353 1.09546 81.1301 0.826418C80.9071 0.557376 80.6173 0.351764 80.2897 0.23024C79.9621 0.108716 79.6083 0.0755616 79.2638 0.134117C78.9193 0.192671 78.5963 0.340872 78.3273 0.563816L73.3444 4.69295L70.4527 7.08922C68.4408 6.79374 66.3944 6.82459 64.3924 7.1806L61.3903 4.69294L56.4075 0.563807C56.1384 0.340862 55.8154 0.192663 55.471 0.134108C55.1265 0.0755524 54.7727 0.108702 54.4451 0.230227C54.1175 0.351751 53.8276 0.557367 53.6047 0.826409C53.3818 1.09545 53.2336 1.41844 53.175 1.76291L52.0905 8.14279L51.006 14.5227C50.9581 14.7955 50.9686 15.0753 51.0368 15.3437C51.105 15.6121 51.2293 15.8631 51.4015 16.08C49.6402 18.9923 48.6917 22.3235 48.6545 25.7268C48.6174 29.1301 49.493 32.4812 51.1903 35.4313C52.8876 38.3814 55.3445 40.8227 58.3053 42.5012C61.2662 44.1797 64.6228 45.034 68.0258 44.9752C71.4288 44.9164 74.7539 43.9467 77.655 42.1669C80.5561 40.3871 82.9272 37.8624 84.5215 34.8554C86.1159 31.8484 86.8752 28.4691 86.7205 25.0691C86.5658 21.6691 85.5028 18.3727 83.6419 15.5229H83.6419Z" fill="#3F3D56"/>
<path d="M78.2012 3.40622L72.1587 8.41343L72.1586 8.41365C72.0254 8.52402 71.9236 8.6675 71.8635 8.82967C71.8033 8.99184 71.7869 9.16699 71.8159 9.33751C71.8449 9.50803 71.9183 9.66792 72.0286 9.8011C72.139 9.93428 72.2825 10.0361 72.4446 10.0962L79.8024 12.8257C79.9646 12.8859 80.1398 12.9023 80.3103 12.8733C80.4809 12.8443 80.6408 12.771 80.774 12.6606C80.9072 12.5502 81.009 12.4067 81.0692 12.2446C81.1293 12.0824 81.1458 11.9072 81.1168 11.7367L79.8017 3.99984C79.7736 3.8289 79.7006 3.66852 79.59 3.53516C79.4795 3.40181 79.3355 3.30028 79.1727 3.24103C79.062 3.19966 78.9448 3.17839 78.8266 3.17822C78.5979 3.17865 78.3766 3.25934 78.2012 3.40622V3.40622Z" fill="#E6E6E6"/>
<path d="M55.5621 3.24103C55.3993 3.30028 55.2552 3.4018 55.1447 3.53516C55.0342 3.66852 54.9611 3.8289 54.9331 3.99984L53.618 11.7367C53.589 11.9072 53.6054 12.0824 53.6656 12.2446C53.7257 12.4067 53.8275 12.5502 53.9608 12.6606C54.094 12.771 54.2539 12.8443 54.4244 12.8733C54.595 12.9023 54.7701 12.8859 54.9323 12.8257L62.2901 10.0962C62.4523 10.0361 62.5958 9.93428 62.7061 9.8011C62.8165 9.66791 62.8899 9.50803 62.9188 9.33751C62.9478 9.16699 62.9314 8.99184 62.8713 8.82967C62.8111 8.6675 62.7094 8.52402 62.5762 8.41365L56.5335 3.40622C56.3582 3.25934 56.1368 3.17865 55.9081 3.17822C55.7899 3.17839 55.6727 3.19966 55.5621 3.24103Z" fill="#E6E6E6"/>
<path d="M67.6995 31.2431C69.1668 31.2431 70.3563 30.0536 70.3563 28.5862C70.3563 27.1189 69.1668 25.9294 67.6995 25.9294C66.2321 25.9294 65.0426 27.1189 65.0426 28.5862C65.0426 30.0536 66.2321 31.2431 67.6995 31.2431Z" fill="#E6E6E6"/>
<path d="M67.6995 27.9219C68.6777 27.9219 69.4707 27.6245 69.4707 27.2577C69.4707 26.8908 68.6777 26.5934 67.6995 26.5934C66.7213 26.5934 65.9283 26.8908 65.9283 27.2577C65.9283 27.6245 66.7213 27.9219 67.6995 27.9219Z" fill="#3F3D56"/>
<path d="M67.8102 34.3425C67.6503 34.3425 67.4919 34.311 67.3442 34.2498C67.1965 34.1886 67.0622 34.0989 66.9491 33.9859C66.8361 33.8728 66.7464 33.7385 66.6852 33.5908C66.624 33.4431 66.5925 33.2847 66.5925 33.1248V30.1359H69.0279V33.1248C69.0279 33.2847 68.9964 33.4431 68.9352 33.5908C68.874 33.7385 68.7843 33.8728 68.6713 33.9859C68.5582 34.0989 68.4239 34.1886 68.2762 34.2498C68.1285 34.311 67.9701 34.3425 67.8102 34.3425V34.3425Z" fill="#FF6584"/>
<path d="M67.5517 0C67.6794 0.264835 67.8034 0.532535 67.92 0.805709C69.2941 4.01023 69.7574 7.5317 69.2592 10.9826C69.0099 10.6209 68.7479 10.2441 68.4814 9.86316C69.0521 6.55118 68.7312 3.14699 67.5517 0V0Z" fill="#3F3D56"/>
<path d="M65.559 2.43555C65.6867 2.70039 65.8107 2.96808 65.9274 3.24126C67.3014 6.44578 67.7648 9.96725 67.2665 13.4181C67.0172 13.0565 66.7552 12.6797 66.4888 12.2987C67.0595 8.98673 66.7386 5.58254 65.559 2.43555V2.43555Z" fill="#3F3D56"/>
<path d="M59.4156 11.5024L59.6963 7.93249L59.977 4.36259C59.9922 4.16984 60.0578 3.98447 60.1673 3.82512C60.2768 3.66577 60.4263 3.53805 60.6008 3.4548C60.7753 3.37155 60.9687 3.33571 61.1614 3.35086C61.3542 3.36602 61.5395 3.43165 61.6989 3.54116L64.6501 5.56921L66.8053 7.05015C66.943 6.88888 67.114 6.75939 67.3066 6.6706C67.4992 6.58181 67.7088 6.53583 67.9209 6.53583C68.133 6.53583 68.3425 6.58181 68.5351 6.6706C68.7277 6.75939 68.8988 6.88888 69.0365 7.05015L71.1916 5.56921L74.1429 3.54116C74.3023 3.43165 74.4876 3.36602 74.6804 3.35086C74.8731 3.33571 75.0665 3.37155 75.241 3.4548C75.4155 3.53805 75.565 3.66577 75.6745 3.82512C75.784 3.98447 75.8496 4.16984 75.8648 4.36259L76.1455 7.93249L76.4262 11.5024C76.4414 11.6951 76.4055 11.8885 76.3223 12.063C76.239 12.2375 76.1113 12.387 75.9519 12.4965C75.7926 12.606 75.6072 12.6716 75.4145 12.6868C75.2217 12.7019 75.0284 12.6661 74.8539 12.5828L71.6219 11.041L68.9663 9.77413C68.8297 9.91258 68.6669 10.0225 68.4874 10.0975C68.308 10.1726 68.1154 10.2112 67.9209 10.2112C67.7264 10.2112 67.5338 10.1726 67.3543 10.0975C67.1748 10.0225 67.0121 9.91258 66.8754 9.77413L64.2199 11.041L60.9879 12.5829C60.8134 12.6661 60.6201 12.702 60.4273 12.6868C60.2345 12.6716 60.0492 12.606 59.8898 12.4965C59.7305 12.387 59.6028 12.2375 59.5195 12.063C59.4363 11.8885 59.4004 11.6951 59.4156 11.5024V11.5024Z" fill="white"/>
<path d="M70.5777 25.7078C70.5777 26.0746 70.8751 25.7078 71.2419 25.7078C71.6088 25.7078 71.9062 26.0746 71.9062 25.7078C71.9058 25.5318 71.8356 25.3632 71.7111 25.239C71.5866 25.1147 71.4179 25.0449 71.2419 25.0449C71.066 25.0449 70.8973 25.1147 70.7727 25.239C70.6482 25.3632 70.5781 25.5318 70.5777 25.7078V25.7078Z" fill="#E6E6E6"/>
<path d="M64.8212 25.7078C64.8212 26.0746 64.5239 25.7078 64.157 25.7078C63.7902 25.7078 63.4928 26.0746 63.4928 25.7078C63.4932 25.5318 63.5633 25.3632 63.6878 25.239C63.8124 25.1147 63.9811 25.0449 64.157 25.0449C64.333 25.0449 64.5017 25.1147 64.6262 25.239C64.7507 25.3632 64.8209 25.5318 64.8212 25.7078V25.7078Z" fill="#E6E6E6"/>
<path d="M138.513 75.858V71.636H117.403V71.9V75.858V109.898V114.12H121.625H138.513V109.898H121.625V75.858H138.513Z" fill="#3F3D56"/>
<path d="M148.804 71.636V114.12H169.914V71.636H148.804ZM165.692 109.898H153.026V75.858H165.692V109.898Z" fill="white"/>
<path d="M90.2241 109.898V71.9001H86.0021V109.898V114.12H90.2241H107.112V109.898H90.2241Z" fill="white"/>
<path d="M76.5027 75.858V71.636H55.3927V71.9V75.858V90.6351V94.8572V109.898V114.12H59.6147H76.5027V109.898H59.6147V94.8572H76.5027V90.6351H59.6147V75.858H76.5027Z" fill="#3F3D56"/>
<path d="M241.688 75.858V71.636H220.578V71.9V75.858V90.6351V94.8572V109.898V114.12H224.8H241.688V109.898H224.8V94.8572H241.688V90.6351H224.8V75.858H241.688Z" fill="white"/>
<path d="M41.1434 71.9V106.794L30.0113 95.6622L29.986 95.6878L29.9624 95.6642L18.5822 107.044V71.7681H14.3601V113.988H18.5822V113.015L29.988 101.609L41.1434 112.765V114.12H45.3654V71.9H41.1434Z" fill="#3F3D56"/>
<path d="M206.593 71.9V72.8727L195.187 84.2785L184.032 73.1232V71.7681H179.81V113.988H184.032V79.0939L195.164 90.2259L195.189 90.2003L195.213 90.2236L206.593 78.8434V114.12H210.815V71.9H206.593Z" fill="#3F3D56"/>
<path d="M96.4815 45.8917C97.9127 45.8917 99.073 44.7314 99.073 43.3002C99.073 41.869 97.9127 40.7087 96.4815 40.7087C95.0503 40.7087 93.89 41.869 93.89 43.3002C93.89 44.7314 95.0503 45.8917 96.4815 45.8917Z" fill="white"/>
<path d="M32.5589 74.6856C33.9901 74.6856 35.1504 73.5254 35.1504 72.0941C35.1504 70.6629 33.9901 69.5027 32.5589 69.5027C31.1277 69.5027 29.9675 70.6629 29.9675 72.0941C29.9675 73.5254 31.1277 74.6856 32.5589 74.6856Z" fill="white"/>
<path d="M83.8122 132.273C85.2434 132.273 86.4036 131.113 86.4036 129.682C86.4036 128.251 85.2434 127.091 83.8122 127.091C82.3809 127.091 81.2207 128.251 81.2207 129.682C81.2207 131.113 82.3809 132.273 83.8122 132.273Z" fill="white"/>
<path d="M148.886 53.6661C150.318 53.6661 151.478 52.5058 151.478 51.0746C151.478 49.6434 150.318 48.4832 148.886 48.4832C147.455 48.4832 146.295 49.6434 146.295 51.0746C146.295 52.5058 147.455 53.6661 148.886 53.6661Z" fill="white"/>
<path d="M225.19 129.97C226.622 129.97 227.782 128.81 227.782 127.379C227.782 125.947 226.622 124.787 225.19 124.787C223.759 124.787 222.599 125.947 222.599 127.379C222.599 128.81 223.759 129.97 225.19 129.97Z" fill="white"/>
<path d="M227.782 62.0162C229.213 62.0162 230.373 60.856 230.373 59.4248C230.373 57.9935 229.213 56.8333 227.782 56.8333C226.351 56.8333 225.19 57.9935 225.19 59.4248C225.19 60.856 226.351 62.0162 227.782 62.0162Z" fill="white"/>
<path d="M194.957 108.662C196.388 108.662 197.548 107.502 197.548 106.071C197.548 104.64 196.388 103.479 194.957 103.479C193.526 103.479 192.365 104.64 192.365 106.071C192.365 107.502 193.526 108.662 194.957 108.662Z" fill="white"/>
</g>
<defs>
<clipPath id="clip0">
<rect width="256" height="132.274" fill="white"/>
</clipPath>
</defs>
</svg>
